# xmcd
#
# Track frame offsets:
#  300
#  20222
#  41708
#  68394
#  85671
#  105548
#  128317
#  147169
#  166812
#  187236
#  210429
#
# Disc length: 3047 seconds
#
# Revision: 0
# Processed by: cddbd v1.5.1PL2 Copyright (c) Steve Scherf et al.
# Submitted via: Collectorz.com_Music_Collector 6.9
#
DISCID=8d0be30b
DTITLE=Chain - Sweet Honey
DYEAR=2005
DGENRE=Blues
TTITLE0=Cold Wind Blowin'
TTITLE1=Texas
TTITLE2=Northern Sun
TTITLE3=Saturday Night At The Trocadero
TTITLE4=Sweet Honey
TTITLE5=It Makes No Difference
TTITLE6=The Haj
TTITLE7=Welcome
TTITLE8=Early Flight
TTITLE9=A.m. Boogie
TTITLE10=Cornflakes
EXTD=
EXTT0=
EXTT1=
EXTT2=
EXTT3=
EXTT4=
EXTT5=
EXTT6=
EXTT7=
EXTT8=
EXTT9=
EXTT10=
PLAYORDER=
